# xmcd
#
# Track frame offsets:
#	150
#	53157
#	74877
#	131877
#	154530
#	174842
#	202269
#	223776
#	242753
#	259851
#
# Disc length: 3825 seconds
#
# Revision: 0
# Processed by: cddbd v1.4PL0 Copyright (c) Steve Scherf et al.
# Submitted via: audiograbber 1.81.01
#
DISCID=9d0eef0a
DTITLE=Prince and The New Power Generation - One Nite Alone... Live! 1
DYEAR=2002
DGENRE=Soul
TTITLE0=Prince and The New Power Generation - Rainbow Children
TTITLE1=Prince and The New Power Generation - Muse 2 the Pharaoh
TTITLE2=Prince and The New Power Generation - Xenophobia
TTITLE3=Prince and The New Power Generation - Extraordinary
TTITLE4=Prince and The New Power Generation - Mellow
TTITLE5=Prince and The New Power Generation - 1+1+1 is 3
TTITLE6=Prince and The New Power Generation - The Other Side of the Pillow
TTITLE7=Prince and The New Power Generation - Strange Relationship
TTITLE8=Prince and The New Power Generation - When U Were Mine
TTITLE9=Prince and The New Power Generation - Avalanche
EXTD=
EXTT0=
EXTT1=
EXTT2=
EXTT3=
EXTT4=
EXTT5=
EXTT6=
EXTT7=
EXTT8=
EXTT9=
PLAYORDER=
